<svg width="24" height="24" viewBox="0 0 24 24" fill="none" xmlns="http://www.w3.org/2000/svg">
<path d="M4.33333 0C1.95204 0 0 1.95204 0 4.33333V19.6667C0 22.0479 1.95204 24 4.33333 24H19.6667C22.0479 24 24 22.0479 24 19.6667V4.33333C24 1.95204 22.0479 0 19.6667 0H4.33333ZM4.33333 2H19.6667C20.9667 2 22 3.03329 22 4.33333V19.6667C22 20.9667 20.9667 22 19.6667 22H4.33333C3.03329 22 2 20.9667 2 19.6667V4.33333C2 3.03329 3.03329 2 4.33333 2ZM5.21875 5.33333L10.3763 12.7044L5.21484 18.6667H6.57682L10.9792 13.5677L14.5469 18.6667H18.8385L13.3503 10.8229L18.0911 5.33334H16.7578L12.7487 9.96224L9.51042 5.33334L5.21875 5.33333ZM7.29036 6.46354H8.9987L16.7669 17.5365H15.0586L7.29036 6.46354Z" fill="#4F3527"/>
</svg>
